<?xml version="1.0" encoding="UTF-8"?>
<svg width="512" height="512" viewBox="0 0 512 512" xmlns="http://www.w3.org/2000/svg">
  <!-- Background with rounded corners -->
  <rect width="512" height="512" fill="#8b6c4c" rx="102"/>

  <!-- Decorative circle background -->
  <circle cx="256" cy="225" r="145" fill="white" opacity="0.15"/>

  <!-- Horse Head Silhouette -->
  <g transform="translate(256, 200) scale(6.5)">
    <path d="M-8,-12 L-6,-8 L-8,-4 L-10,-2 L-12,0 L-12,4 L-10,8 L-6,10 L-2,10 L2,8 L4,6 L6,2 L8,-2 L8,-8 L6,-12 L4,-14 L0,-16 L-4,-16 L-8,-14 Z"
          fill="white"/>
    <!-- Eye -->
    <circle cx="0" cy="-6" r="1.5" fill="#8b6c4c"/>
    <!-- Ear -->
    <path d="M-2,-14 L0,-18 L2,-14" stroke="white" stroke-width="1.5" fill="none" stroke-linecap="round"/>
  </g>

  <!-- Brand Text -->
  <text x="256" y="390"
        font-family="serif"
        font-size="85"
        font-weight="bold"
        fill="white"
        text-anchor="middle"
        letter-spacing="5">MS</text>

  <!-- Decorative horseshoe -->
  <g transform="translate(256, 445)">
    <path d="M-40,0 Q-40,-22 -22,-26 Q0,-30 22,-26 Q40,-22 40,0"
          stroke="white"
          stroke-width="6"
          fill="none"
          opacity="0.6"
          stroke-linecap="round"/>
    <circle cx="-32" cy="-12" r="4" fill="white" opacity="0.6"/>
    <circle cx="32" cy="-12" r="4" fill="white" opacity="0.6"/>
  </g>
</svg>
